<?xml version="1.0" encoding="utf-8"?>
<!-- Generator: Adobe Illustrator 16.2.0, SVG Export Plug-In . SVG Version: 6.00 Build 0)  -->
<!DOCTYPE svg PUBLIC "-//W3C//DTD SVG 1.1 Tiny//EN" "http://www.w3.org/Graphics/SVG/1.1/DTD/svg11-tiny.dtd">
<svg version="1.1" baseProfile="tiny" id="Layer_1" xmlns="http://www.w3.org/2000/svg" xmlns:xlink="http://www.w3.org/1999/xlink"
	 x="0px" y="0px" width="306.142px" height="48.189px" viewBox="0 0 306.142 48.189" xml:space="preserve">
<g>
	<rect x="4.62" y="2.179" fill="none" width="311" height="49.5"/>
	<path fill="#FFFFFF" d="M39.105,44.836c-3.164,1.641-7.1,2.461-11.807,2.461c-6.094,0-10.977-1.923-14.648-5.771
		c-3.672-3.848-5.508-8.896-5.508-15.146c0-6.719,2.065-12.147,6.196-16.289c4.131-4.141,9.35-6.211,15.659-6.211
		c4.062,0,7.431,0.576,10.107,1.729v6.914c-2.832-1.68-5.958-2.52-9.375-2.52c-4.551,0-8.237,1.455-11.06,4.365
		c-2.823,2.911-4.233,6.797-4.233,11.66c0,4.629,1.318,8.316,3.955,11.06c2.637,2.744,6.104,4.116,10.4,4.116
		c3.965,0,7.402-0.938,10.313-2.813V44.836z"/>
	<path fill="#FFFFFF" d="M70.335,46.594H47.074V4.582h6.973v36.123h16.289V46.594z"/>
	<path fill="#FFFFFF" d="M108.861,46.594h-8.145l-6.709-11.25c-0.605-1.035-1.197-1.919-1.772-2.651
		c-0.576-0.732-1.162-1.333-1.758-1.802c-0.596-0.469-1.245-0.81-1.948-1.025c-0.703-0.215-1.494-0.322-2.373-0.322h-2.813v17.051
		H76.4V4.582h13.828c1.973,0,3.789,0.234,5.449,0.703c1.66,0.469,3.105,1.177,4.336,2.124c1.23,0.948,2.192,2.129,2.886,3.545
		c0.693,1.417,1.04,3.072,1.04,4.966c0,1.484-0.22,2.847-0.659,4.087c-0.439,1.241-1.065,2.344-1.875,3.311
		c-0.811,0.967-1.787,1.792-2.93,2.476c-1.143,0.685-2.427,1.212-3.853,1.582v0.117c0.762,0.43,1.425,0.904,1.992,1.421
		c0.566,0.518,1.103,1.051,1.611,1.597c0.508,0.547,1.011,1.168,1.509,1.86c0.498,0.693,1.05,1.499,1.655,2.417L108.861,46.594z
		 M83.343,10.236v13.652h5.801c1.074,0,2.065-0.165,2.974-0.498c0.908-0.332,1.694-0.81,2.358-1.436
		c0.664-0.625,1.182-1.387,1.553-2.285c0.371-0.897,0.557-1.904,0.557-3.018c0-2.011-0.635-3.584-1.904-4.717
		c-1.27-1.132-3.096-1.699-5.479-1.699H83.343z"/>
	<path fill="#FFFFFF" d="M120.755,46.477c-0.488,0.156-1.04,0.283-1.655,0.381s-1.226,0.146-1.831,0.146
		c-1.973,0-3.447-0.493-4.424-1.479c-0.977-0.985-1.465-2.31-1.465-3.97c0-0.487,0.048-1.064,0.146-1.729
		c0.098-0.663,0.253-1.483,0.469-2.461l4.365-20.771h4.863l-4.395,20.889c-0.176,0.82-0.298,1.455-0.366,1.904
		c-0.069,0.45-0.103,0.831-0.103,1.143c0,0.802,0.22,1.411,0.659,1.831c0.439,0.421,1.138,0.63,2.095,0.63
		c0.508,0,0.952-0.029,1.333-0.088s0.737-0.146,1.069-0.264L120.755,46.477z M124.183,5.9c0,0.879-0.298,1.631-0.894,2.256
		c-0.596,0.626-1.333,0.938-2.212,0.938c-0.86,0-1.607-0.308-2.241-0.923c-0.635-0.615-0.952-1.372-0.952-2.271
		c0-0.897,0.317-1.63,0.952-2.197c0.634-0.566,1.381-0.85,2.241-0.85c0.859,0,1.592,0.289,2.197,0.864
		C123.88,4.294,124.183,5.021,124.183,5.9z"/>
	<path fill="#FFFFFF" d="M151.341,38.068c-0.176,0.762-0.337,1.553-0.483,2.373s-0.289,1.611-0.425,2.373
		c-0.137,0.762-0.254,1.476-0.352,2.139c-0.098,0.664-0.176,1.212-0.234,1.641h-4.688c0.098-0.762,0.209-1.557,0.337-2.388
		c0.127-0.83,0.249-1.597,0.366-2.3c0.136-0.82,0.264-1.621,0.381-2.402h-0.117c-0.684,1.074-1.44,2.085-2.271,3.032
		c-0.831,0.948-1.729,1.777-2.695,2.49c-0.967,0.714-1.992,1.274-3.076,1.685s-2.212,0.615-3.384,0.615
		c-1.289,0-2.417-0.2-3.384-0.601c-0.967-0.399-1.772-0.962-2.417-1.685c-0.645-0.722-1.128-1.592-1.45-2.607
		c-0.322-1.015-0.483-2.148-0.483-3.398c0-0.253,0.039-0.634,0.117-1.143c0.078-0.508,0.166-1.055,0.264-1.641
		c0.098-0.586,0.209-1.167,0.337-1.743c0.127-0.575,0.229-1.069,0.308-1.479l3.486-16.436h4.863l-3.721,17.578
		c-0.078,0.313-0.157,0.674-0.234,1.084c-0.078,0.41-0.151,0.82-0.22,1.23c-0.069,0.41-0.122,0.787-0.161,1.128
		c-0.04,0.342-0.059,0.611-0.059,0.806c0,1.465,0.356,2.633,1.069,3.501c0.713,0.869,1.782,1.304,3.208,1.304
		c0.859,0,1.718-0.176,2.578-0.527c0.859-0.352,1.694-0.824,2.505-1.421c0.81-0.596,1.577-1.289,2.3-2.08
		c0.722-0.791,1.377-1.63,1.963-2.52c0.586-0.889,1.084-1.802,1.494-2.739s0.713-1.835,0.908-2.695l3.135-14.648h4.834
		L151.341,38.068z"/>
	<path fill="#FFFFFF" d="M206.009,24.152c0,0.254-0.034,0.641-0.103,1.157c-0.069,0.518-0.157,1.069-0.264,1.655
		c-0.107,0.586-0.215,1.168-0.322,1.743c-0.107,0.576-0.201,1.06-0.278,1.45l-3.545,16.436h-4.805l3.662-17.578
		c0.078-0.332,0.156-0.703,0.234-1.113c0.078-0.41,0.151-0.815,0.22-1.216c0.068-0.399,0.122-0.771,0.161-1.113
		c0.039-0.341,0.059-0.61,0.059-0.806c0-1.542-0.333-2.729-0.996-3.56c-0.664-0.83-1.699-1.245-3.105-1.245
		c-0.743,0-1.509,0.172-2.3,0.513c-0.791,0.342-1.563,0.806-2.314,1.392c-0.752,0.586-1.475,1.271-2.168,2.051
		c-0.693,0.781-1.329,1.616-1.904,2.505c-0.576,0.89-1.069,1.798-1.479,2.725c-0.41,0.928-0.713,1.842-0.908,2.739l-3.135,14.707
		h-4.863l3.721-17.578c0.078-0.332,0.156-0.703,0.234-1.113c0.078-0.41,0.151-0.815,0.22-1.216c0.068-0.399,0.122-0.771,0.161-1.113
		c0.039-0.341,0.059-0.61,0.059-0.806c0-1.542-0.342-2.729-1.025-3.56c-0.684-0.83-1.709-1.245-3.076-1.245
		c-0.762,0-1.543,0.172-2.344,0.513c-0.801,0.342-1.582,0.811-2.344,1.406c-0.762,0.597-1.49,1.289-2.183,2.08
		c-0.693,0.791-1.329,1.631-1.904,2.52c-0.576,0.89-1.065,1.798-1.465,2.725c-0.4,0.928-0.699,1.842-0.894,2.739l-3.135,14.648
		h-4.863l4.629-21.416c0.156-0.762,0.312-1.557,0.469-2.388c0.156-0.83,0.303-1.63,0.439-2.402c0.136-0.771,0.253-1.489,0.352-2.153
		c0.098-0.663,0.176-1.211,0.234-1.641h4.688c-0.098,0.762-0.215,1.558-0.352,2.388c-0.137,0.831-0.254,1.597-0.352,2.3
		c-0.117,0.82-0.245,1.622-0.381,2.402h0.117c0.703-1.132,1.465-2.178,2.285-3.135c0.82-0.956,1.689-1.782,2.607-2.476
		c0.918-0.692,1.875-1.234,2.871-1.626c0.996-0.391,2.031-0.586,3.105-0.586c1.25,0,2.324,0.187,3.223,0.557
		c0.898,0.371,1.645,0.894,2.241,1.567c0.596,0.674,1.05,1.49,1.362,2.446c0.312,0.957,0.498,2.021,0.557,3.193
		c0.722-1.094,1.499-2.113,2.329-3.062c0.83-0.947,1.718-1.768,2.666-2.461c0.947-0.692,1.953-1.24,3.018-1.641
		c1.064-0.399,2.192-0.601,3.384-0.601c2.5,0,4.375,0.729,5.625,2.183C205.384,19.499,206.009,21.535,206.009,24.152z"/>
	<path fill="#FFFFFF" d="M237.298,31.301h-8.262l0.527-2.285h8.232l2.227-10.137h-8.584l0.527-2.285h8.525l2.578-12.012h2.344
		l-2.578,12.012h7.852l2.578-12.012h2.344l-2.579,12.012h8.028l-0.527,2.285h-7.969l-2.227,10.137h8.321l-0.527,2.285h-8.292
		l-2.52,11.689h-2.314l2.52-11.689h-7.881l-2.52,11.689h-2.344L237.298,31.301z M247.992,29.016l2.227-10.137h-7.881l-2.197,10.137
		H247.992z"/>
	<path fill="#FFFFFF" d="M273.246,46.594h-5.449c1.836-5.215,4.79-11.172,8.862-17.871c4.072-6.698,8.687-13.301,13.843-19.805
		H269.73l0.938-4.336h26.719l-0.586,2.783c-6.016,7.657-11.021,14.829-15.015,21.519C277.792,35.574,274.945,41.478,273.246,46.594z
		"/>
</g>
<g>
</g>
<g>
</g>
<g>
</g>
<g>
</g>
<g>
</g>
<g>
</g>
</svg>
