<?xml version="1.0" encoding="utf-8"?>
<!-- Generator: Adobe Illustrator 16.2.0, SVG Export Plug-In . SVG Version: 6.00 Build 0)  -->
<!DOCTYPE svg PUBLIC "-//W3C//DTD SVG 1.1 Tiny//EN" "http://www.w3.org/Graphics/SVG/1.1/DTD/svg11-tiny.dtd">
<svg version="1.1" baseProfile="tiny" id="Layer_1" xmlns="http://www.w3.org/2000/svg" xmlns:xlink="http://www.w3.org/1999/xlink"
	 x="0px" y="0px" width="282.744px" height="76.536px" viewBox="0 0 282.744 76.536" xml:space="preserve">
<g>
	<path d="M110.701,47.235c-3.164,1.641-7.1,2.461-11.807,2.461c-6.094,0-10.977-1.923-14.648-5.771
		c-3.672-3.848-5.508-8.896-5.508-15.146c0-6.719,2.065-12.148,6.196-16.289c4.131-4.141,9.35-6.211,15.659-6.211
		c4.062,0,7.431,0.576,10.107,1.729v6.914c-2.832-1.68-5.958-2.52-9.375-2.52c-4.551,0-8.237,1.455-11.06,4.365
		c-2.823,2.911-4.233,6.797-4.233,11.66c0,4.629,1.318,8.316,3.955,11.06c2.637,2.744,6.104,4.116,10.4,4.116
		c3.965,0,7.402-0.938,10.313-2.813V47.235z"/>
	<path d="M141.932,48.993H118.67V6.981h6.973v36.123h16.289V48.993z"/>
	<path d="M180.457,48.993h-8.145l-6.709-11.25c-0.605-1.035-1.197-1.919-1.772-2.651c-0.576-0.732-1.162-1.333-1.758-1.802
		c-0.596-0.469-1.245-0.81-1.948-1.025c-0.703-0.215-1.494-0.322-2.373-0.322h-2.813v17.051h-6.943V6.981h13.828
		c1.973,0,3.789,0.234,5.449,0.703c1.66,0.469,3.105,1.177,4.336,2.124c1.23,0.948,2.192,2.129,2.886,3.545
		c0.693,1.417,1.04,3.072,1.04,4.966c0,1.484-0.22,2.847-0.659,4.087c-0.439,1.241-1.065,2.344-1.875,3.311
		c-0.811,0.967-1.787,1.792-2.93,2.476c-1.143,0.684-2.427,1.211-3.853,1.582v0.117c0.762,0.43,1.425,0.904,1.992,1.421
		c0.566,0.518,1.103,1.05,1.611,1.597c0.508,0.547,1.011,1.167,1.509,1.86c0.498,0.693,1.05,1.499,1.655,2.417L180.457,48.993z
		 M154.939,12.636v13.652h5.801c1.074,0,2.065-0.166,2.974-0.498c0.908-0.332,1.694-0.81,2.358-1.436
		c0.664-0.625,1.182-1.387,1.553-2.285c0.371-0.898,0.557-1.904,0.557-3.018c0-2.011-0.635-3.584-1.904-4.717
		c-1.27-1.132-3.096-1.699-5.479-1.699H154.939z"/>
	<path d="M192.352,48.876c-0.488,0.156-1.04,0.283-1.655,0.381c-0.615,0.098-1.226,0.146-1.831,0.146
		c-1.973,0-3.447-0.493-4.424-1.479c-0.977-0.986-1.465-2.31-1.465-3.97c0-0.488,0.048-1.064,0.146-1.729
		c0.098-0.664,0.253-1.484,0.469-2.461l4.365-20.771h4.863l-4.395,20.889c-0.176,0.82-0.298,1.455-0.366,1.904
		c-0.069,0.45-0.103,0.831-0.103,1.143c0,0.801,0.22,1.411,0.659,1.831c0.439,0.42,1.138,0.63,2.095,0.63
		c0.508,0,0.952-0.029,1.333-0.088s0.737-0.146,1.069-0.264L192.352,48.876z M195.779,8.3c0,0.879-0.298,1.631-0.894,2.256
		c-0.596,0.625-1.333,0.938-2.212,0.938c-0.86,0-1.607-0.308-2.241-0.923c-0.635-0.615-0.952-1.372-0.952-2.271
		c0-0.898,0.317-1.63,0.952-2.197c0.634-0.566,1.381-0.85,2.241-0.85c0.859,0,1.592,0.289,2.197,0.864
		C195.476,6.693,195.779,7.421,195.779,8.3z"/>
	<path d="M222.938,40.468c-0.176,0.762-0.337,1.553-0.483,2.373s-0.289,1.611-0.425,2.373c-0.137,0.762-0.254,1.475-0.352,2.139
		c-0.098,0.664-0.176,1.211-0.234,1.641h-4.688c0.098-0.762,0.209-1.557,0.337-2.388c0.127-0.83,0.249-1.597,0.366-2.3
		c0.136-0.82,0.264-1.621,0.381-2.402h-0.117c-0.684,1.074-1.44,2.085-2.271,3.032c-0.831,0.948-1.729,1.777-2.695,2.49
		c-0.967,0.713-1.992,1.274-3.076,1.685s-2.212,0.615-3.384,0.615c-1.289,0-2.417-0.201-3.384-0.601s-1.772-0.962-2.417-1.685
		c-0.645-0.722-1.128-1.592-1.45-2.607c-0.322-1.015-0.483-2.148-0.483-3.398c0-0.253,0.039-0.634,0.117-1.143
		c0.078-0.508,0.166-1.055,0.264-1.641c0.098-0.586,0.209-1.167,0.337-1.743c0.127-0.576,0.229-1.069,0.308-1.479l3.486-16.436
		h4.863l-3.721,17.578c-0.078,0.313-0.157,0.674-0.234,1.084c-0.078,0.41-0.151,0.82-0.22,1.23c-0.069,0.41-0.122,0.787-0.161,1.128
		c-0.04,0.342-0.059,0.611-0.059,0.806c0,1.465,0.356,2.632,1.069,3.501c0.713,0.869,1.782,1.304,3.208,1.304
		c0.859,0,1.718-0.176,2.578-0.527c0.859-0.352,1.694-0.825,2.505-1.421c0.81-0.596,1.577-1.289,2.3-2.08
		c0.722-0.791,1.377-1.63,1.963-2.52c0.586-0.889,1.084-1.802,1.494-2.739s0.713-1.835,0.908-2.695l3.135-14.648h4.834
		L222.938,40.468z"/>
	<path d="M277.605,26.552c0,0.254-0.034,0.64-0.103,1.157c-0.069,0.518-0.157,1.069-0.264,1.655
		c-0.107,0.586-0.215,1.167-0.322,1.743c-0.107,0.576-0.201,1.06-0.278,1.45l-3.545,16.436h-4.805l3.662-17.578
		c0.078-0.332,0.156-0.703,0.234-1.113c0.078-0.41,0.151-0.815,0.22-1.216c0.068-0.4,0.122-0.771,0.161-1.113
		c0.039-0.341,0.059-0.61,0.059-0.806c0-1.542-0.333-2.729-0.996-3.56c-0.664-0.83-1.699-1.245-3.105-1.245
		c-0.743,0-1.509,0.171-2.3,0.513c-0.791,0.342-1.563,0.806-2.314,1.392c-0.752,0.586-1.475,1.27-2.168,2.051
		c-0.693,0.781-1.329,1.616-1.904,2.505c-0.576,0.889-1.069,1.797-1.479,2.725c-0.41,0.928-0.713,1.841-0.908,2.739l-3.135,14.707
		h-4.863l3.721-17.578c0.078-0.332,0.156-0.703,0.234-1.113c0.078-0.41,0.151-0.815,0.22-1.216c0.068-0.4,0.122-0.771,0.161-1.113
		c0.039-0.341,0.059-0.61,0.059-0.806c0-1.542-0.342-2.729-1.025-3.56c-0.684-0.83-1.709-1.245-3.076-1.245
		c-0.762,0-1.543,0.171-2.344,0.513c-0.801,0.342-1.582,0.811-2.344,1.406c-0.762,0.596-1.49,1.289-2.183,2.08
		c-0.693,0.791-1.329,1.631-1.904,2.52c-0.576,0.889-1.065,1.797-1.465,2.725c-0.4,0.928-0.699,1.841-0.894,2.739l-3.135,14.648
		h-4.863l4.629-21.416c0.156-0.762,0.312-1.557,0.469-2.388c0.156-0.83,0.303-1.63,0.439-2.402c0.136-0.771,0.253-1.489,0.352-2.153
		c0.098-0.664,0.176-1.211,0.234-1.641h4.688c-0.098,0.762-0.215,1.558-0.352,2.388c-0.137,0.831-0.254,1.597-0.352,2.3
		c-0.117,0.82-0.245,1.622-0.381,2.402h0.117c0.703-1.132,1.465-2.178,2.285-3.135c0.82-0.957,1.689-1.782,2.607-2.476
		c0.918-0.693,1.875-1.235,2.871-1.626c0.996-0.391,2.031-0.586,3.105-0.586c1.25,0,2.324,0.186,3.223,0.557
		c0.898,0.371,1.645,0.894,2.241,1.567c0.596,0.674,1.05,1.49,1.362,2.446c0.312,0.957,0.498,2.021,0.557,3.193
		c0.722-1.094,1.499-2.114,2.329-3.062c0.83-0.947,1.718-1.768,2.666-2.461c0.947-0.693,1.953-1.24,3.018-1.641
		c1.064-0.4,2.192-0.601,3.384-0.601c2.5,0,4.375,0.728,5.625,2.183C276.98,21.898,277.605,23.935,277.605,26.552z"/>
</g>
<g>
	<path d="M94.972,55.721l-3.164,11.203h-1.539l-2.305-8.188c-0.099-0.349-0.159-0.729-0.18-1.141h-0.031
		c-0.031,0.386-0.099,0.761-0.203,1.125l-2.32,8.203h-1.523l-3.281-11.203h1.445l2.383,8.594c0.099,0.359,0.161,0.734,0.188,1.125
		h0.039c0.026-0.276,0.106-0.651,0.242-1.125l2.477-8.594h1.258l2.375,8.656c0.083,0.297,0.146,0.646,0.188,1.047h0.031
		c0.021-0.271,0.091-0.63,0.211-1.078l2.289-8.625H94.972z"/>
	<path d="M99.183,67.112c-1.183,0-2.126-0.374-2.832-1.121c-0.706-0.747-1.059-1.738-1.059-2.973c0-1.344,0.367-2.393,1.102-3.148
		c0.734-0.755,1.727-1.133,2.977-1.133c1.192,0,2.124,0.367,2.793,1.102c0.669,0.734,1.004,1.753,1.004,3.055
		c0,1.276-0.361,2.298-1.082,3.066C101.363,66.728,100.396,67.112,99.183,67.112z M99.276,59.815c-0.823,0-1.474,0.28-1.953,0.84
		c-0.479,0.56-0.719,1.332-0.719,2.316c0,0.948,0.242,1.695,0.727,2.242s1.133,0.82,1.945,0.82c0.828,0,1.465-0.268,1.91-0.805
		c0.445-0.536,0.668-1.299,0.668-2.289c0-1-0.223-1.771-0.668-2.313C100.741,60.086,100.104,59.815,99.276,59.815z"/>
	<path d="M109.386,60.221c-0.224-0.172-0.547-0.258-0.969-0.258c-0.547,0-1.004,0.258-1.371,0.773s-0.551,1.219-0.551,2.109v4.078
		h-1.281v-8h1.281v1.648h0.031c0.182-0.563,0.461-1.001,0.836-1.316c0.375-0.315,0.794-0.473,1.258-0.473
		c0.333,0,0.588,0.037,0.766,0.109V60.221z"/>
	<path d="M112.058,66.924h-1.281V55.081h1.281V66.924z"/>
	<path d="M121.479,66.924h-1.281v-1.359h-0.031c-0.594,1.031-1.511,1.547-2.75,1.547c-1.005,0-1.809-0.358-2.41-1.074
		c-0.602-0.716-0.902-1.691-0.902-2.926c0-1.323,0.333-2.383,1-3.18c0.667-0.797,1.555-1.195,2.664-1.195
		c1.099,0,1.898,0.433,2.398,1.297h0.031v-4.953h1.281V66.924z M120.198,63.307v-1.18c0-0.646-0.214-1.192-0.641-1.641
		c-0.427-0.448-0.969-0.672-1.625-0.672c-0.781,0-1.396,0.287-1.844,0.859c-0.448,0.573-0.672,1.365-0.672,2.375
		c0,0.922,0.215,1.65,0.645,2.184c0.43,0.534,1.006,0.801,1.73,0.801c0.713,0,1.293-0.258,1.738-0.773
		S120.198,64.094,120.198,63.307z"/>
	<path d="M141.909,55.721l-3.164,11.203h-1.539l-2.305-8.188c-0.099-0.349-0.159-0.729-0.18-1.141h-0.031
		c-0.031,0.386-0.099,0.761-0.203,1.125l-2.32,8.203h-1.523l-3.281-11.203h1.445l2.383,8.594c0.099,0.359,0.161,0.734,0.188,1.125
		h0.039c0.026-0.276,0.106-0.651,0.242-1.125l2.477-8.594h1.258l2.375,8.656c0.083,0.297,0.146,0.646,0.188,1.047h0.031
		c0.021-0.271,0.091-0.63,0.211-1.078l2.289-8.625H141.909z"/>
	<path d="M144.058,56.893c-0.229,0-0.425-0.078-0.586-0.234c-0.162-0.156-0.242-0.354-0.242-0.594c0-0.239,0.081-0.438,0.242-0.598
		c0.161-0.159,0.356-0.238,0.586-0.238c0.234,0,0.434,0.08,0.598,0.238c0.164,0.159,0.246,0.358,0.246,0.598
		c0,0.229-0.082,0.425-0.246,0.586C144.491,56.813,144.292,56.893,144.058,56.893z M144.683,66.924h-1.281v-8h1.281V66.924z"/>
	<path d="M148.558,66.924h-1.281V55.081h1.281V66.924z"/>
	<path d="M157.979,66.924h-1.281v-1.359h-0.031c-0.594,1.031-1.511,1.547-2.75,1.547c-1.005,0-1.809-0.358-2.41-1.074
		c-0.602-0.716-0.902-1.691-0.902-2.926c0-1.323,0.333-2.383,1-3.18c0.667-0.797,1.555-1.195,2.664-1.195
		c1.099,0,1.898,0.433,2.398,1.297h0.031v-4.953h1.281V66.924z M156.698,63.307v-1.18c0-0.646-0.214-1.192-0.641-1.641
		c-0.427-0.448-0.969-0.672-1.625-0.672c-0.781,0-1.396,0.287-1.844,0.859c-0.448,0.573-0.672,1.365-0.672,2.375
		c0,0.922,0.215,1.65,0.645,2.184c0.43,0.534,1.006,0.801,1.73,0.801c0.713,0,1.293-0.258,1.738-0.773
		S156.698,64.094,156.698,63.307z"/>
	<path d="M161.854,66.924h-1.281V55.081h1.281V66.924z"/>
	<path d="M165.104,56.893c-0.229,0-0.425-0.078-0.586-0.234c-0.162-0.156-0.242-0.354-0.242-0.594c0-0.239,0.081-0.438,0.242-0.598
		c0.161-0.159,0.356-0.238,0.586-0.238c0.234,0,0.434,0.08,0.598,0.238c0.164,0.159,0.246,0.358,0.246,0.598
		c0,0.229-0.082,0.425-0.246,0.586C165.538,56.813,165.339,56.893,165.104,56.893z M165.729,66.924h-1.281v-8h1.281V66.924z"/>
	<path d="M172.276,56.206c-0.25-0.141-0.534-0.211-0.852-0.211c-0.896,0-1.344,0.565-1.344,1.695v1.234h1.875v1.094h-1.875v6.906
		h-1.273v-6.906h-1.367v-1.094h1.367v-1.297c0-0.838,0.242-1.501,0.727-1.988c0.484-0.487,1.088-0.73,1.813-0.73
		c0.391,0,0.7,0.047,0.93,0.141V56.206z"/>
	<path d="M179.761,63.245h-5.648c0.021,0.891,0.26,1.578,0.719,2.063c0.458,0.484,1.088,0.727,1.891,0.727
		c0.901,0,1.729-0.297,2.484-0.891v1.203c-0.703,0.511-1.633,0.766-2.789,0.766c-1.13,0-2.019-0.363-2.664-1.09
		c-0.646-0.727-0.969-1.749-0.969-3.066c0-1.245,0.353-2.259,1.059-3.043c0.706-0.784,1.582-1.176,2.629-1.176
		s1.856,0.339,2.43,1.016c0.573,0.677,0.859,1.617,0.859,2.82V63.245z M178.448,62.159c-0.005-0.739-0.184-1.315-0.535-1.727
		c-0.352-0.411-0.84-0.617-1.465-0.617c-0.604,0-1.117,0.216-1.539,0.648c-0.422,0.433-0.683,0.998-0.781,1.695H178.448z"/>
</g>
<g id="settings">
	<g>
		<path d="M44.32,6.47c2.199-0.109,4.309,0.737,6.327,2.541l14.637,13.252l1.57-1.694l5.587,5.059l-8.514,9.404l-5.59-5.097
			l1.39-1.533L45.012,15.078c-1.703-1.519-3.817-2.216-6.342-2.091c-1.674,0.083-3.283,0.477-4.827,1.18
			C37.13,9.219,40.623,6.653,44.32,6.47z"/>
		<rect x="54.273" y="13.593" transform="matrix(0.7414 0.6711 -0.6711 0.7414 24.9208 -35.7256)" width="9.076" height="1.752"/>
		<polygon points="27.518,41.281 9.637,60.163 18.215,67.929 35.262,48.266 		"/>
		<g>
			<polygon points="44.828,37.226 55.283,25.164 48.516,19.037 37.554,30.665 			"/>
			<path d="M64.564,58.41c0.206-0.887,0.287-1.768,0.244-2.642c-0.128-2.574-1.137-4.717-3.025-6.426
				c-1.889-1.71-4.132-2.501-6.731-2.372c-0.875,0.044-1.744,0.2-2.607,0.468l-9.245-8.333l0.041-0.047l-7.35-6.629l-0.012,0.012
				l-9.68-8.763c0.184-0.86,0.252-1.729,0.209-2.603c-0.13-2.625-1.14-4.791-3.028-6.502c-1.889-1.709-4.12-2.5-6.693-2.373
				c-0.899,0.045-1.78,0.214-2.643,0.507l7.476,6.769l-6.624,7.355l-7.477-6.768c-0.206,0.888-0.288,1.769-0.245,2.643
				c0.128,2.574,1.136,4.716,3.025,6.426c1.888,1.71,4.12,2.501,6.693,2.373c0.95-0.048,1.881-0.231,2.791-0.553l3.245,2.938
				l0.007-0.008l21.126,19.054l-0.039,0.044l1.827,1.661c-0.229,0.938-0.32,1.87-0.274,2.795c0.129,2.599,1.132,4.754,3.008,6.464
				c1.877,1.711,4.114,2.501,6.713,2.372c0.875-0.044,1.743-0.213,2.605-0.506l-7.477-6.768l6.662-7.358L64.564,58.41z"/>
		</g>
	</g>
</g>
<g>
</g>
<g>
</g>
<g>
</g>
<g>
</g>
<g>
</g>
<g>
</g>
</svg>
