<?xml version="1.0" encoding="utf-8"?>
<!-- Generator: Adobe Illustrator 16.2.0, SVG Export Plug-In . SVG Version: 6.00 Build 0)  -->
<!DOCTYPE svg PUBLIC "-//W3C//DTD SVG 1.1 Tiny//EN" "http://www.w3.org/Graphics/SVG/1.1/DTD/svg11-tiny.dtd">
<svg version="1.1" baseProfile="tiny" id="Layer_1" xmlns="http://www.w3.org/2000/svg" xmlns:xlink="http://www.w3.org/1999/xlink"
	 x="0px" y="0px" width="73.701px" height="48.189px" viewBox="0 0 73.701 48.189" xml:space="preserve">
<g>
	<rect x="0.838" y="2.51" fill="none" width="72.025" height="47.561"/>
	<path d="M12.586,31.631H4.324l0.527-2.285h8.232l2.227-10.137H6.727l0.527-2.285h8.525l2.578-12.012h2.344l-2.578,12.012h7.852
		l2.578-12.012h2.344l-2.578,12.012h8.027l-0.527,2.285H27.85l-2.227,10.137h8.32l-0.527,2.285h-8.291l-2.52,11.689h-2.314
		l2.52-11.689H14.93l-2.52,11.689h-2.344L12.586,31.631z M23.279,29.346l2.227-10.137h-7.881l-2.197,10.137H23.279z"/>
	<path d="M48.533,46.924h-5.449c1.835-5.215,4.79-11.172,8.862-17.871c4.072-6.699,8.687-13.301,13.843-19.805H45.018l0.938-4.336
		h26.719l-0.586,2.783c-6.016,7.657-11.021,14.829-15.015,21.519C53.079,35.904,50.232,41.808,48.533,46.924z"/>
</g>
<g>
</g>
<g>
</g>
<g>
</g>
<g>
</g>
<g>
</g>
<g>
</g>
</svg>
